<?xml version="1.0" encoding="UTF-8" standalone="no"?>
<!-- Created with Inkscape (http://www.inkscape.org/) -->

<svg
   xmlns:dc="http://purl.org/dc/elements/1.1/"
   xmlns:cc="http://creativecommons.org/ns#"
   xmlns:rdf="http://www.w3.org/1999/02/22-rdf-syntax-ns#"
   xmlns:svg="http://www.w3.org/2000/svg"
   xmlns="http://www.w3.org/2000/svg"
   xmlns:sodipodi="http://sodipodi.sourceforge.net/DTD/sodipodi-0.dtd"
   xmlns:inkscape="http://www.inkscape.org/namespaces/inkscape"
   width="1181"
   height="1183"
   id="svg2"
   version="1.1"
   inkscape:version="0.48.4 r9939"
   inkscape:export-filename="/home/r00t/Desktop/aa.png"
   inkscape:export-xdpi="90"
   inkscape:export-ydpi="90"
   sodipodi:docname="New document 1">
  <defs
     id="defs4" />
  <sodipodi:namedview
     id="base"
     pagecolor="#ffffff"
     bordercolor="#666666"
     borderopacity="1.0"
     inkscape:pageopacity="1"
     inkscape:pageshadow="2"
     inkscape:zoom="0.24748737"
     inkscape:cx="333.83179"
     inkscape:cy="368.2963"
     inkscape:document-units="px"
     inkscape:current-layer="layer1"
     showgrid="false"
     inkscape:window-width="1366"
     inkscape:window-height="718"
     inkscape:window-x="0"
     inkscape:window-y="25"
     inkscape:window-maximized="1" />
  <metadata
     id="metadata7">
    <rdf:RDF>
      <cc:Work
         rdf:about="">
        <dc:format>image/svg+xml</dc:format>
        <dc:type
           rdf:resource="http://purl.org/dc/dcmitype/StillImage" />
        <dc:title></dc:title>
      </cc:Work>
    </rdf:RDF>
  </metadata>
  <g
     inkscape:label="Layer 1"
     inkscape:groupmode="layer"
     id="layer1"
     style="display:inline"
     transform="translate(0,130.63782)">
    <path
       style="fill:#d7b131;fill-opacity:1;stroke:none"
       d=""
       id="path4015"
       inkscape:connector-curvature="0" />
    <path
       inkscape:connector-curvature="0"
       d="m 623.0874,494.29037 c 10.80403,-16.00316 22.02064,-34.40969 36.13295,-48.99943 11.68381,-11.88397 30.8927,-26.57871 47.37701,-36.2431 5.60816,-3.28816 32.1592,-16.43865 48.0057,-23.77694 17.38311,-8.04997 21.90794,-10.18425 36.00442,-16.9826 8.25098,-3.97918 18.60219,-8.93187 23.00272,-11.00591 4.40052,-2.07403 15.65181,-7.47828 25.00291,-12.00943 9.35112,-4.53115 23.75284,-11.50242 32.00383,-15.49192 37.75502,-18.25466 47.92913,-23.2085 76.50926,-37.25258 16.777,-8.24428 41.52975,-20.3943 55.0063,-27.00025 13.4766,-6.60575 40.8714,-20.16766 60.8771,-30.1375 l 36.3742,-18.12691 4.7473,0 4.7473,0 5.384,2.21327 c 5.6349,2.31635 19.2844,11.25319 24.3324,15.93124 l 2.9466,2.73062 -1.2956,6.81443 c -1.6768,8.82112 -4.2717,17.42288 -7.3496,24.36545 l -2.4604,5.54941 -4.3246,3.70167 c -2.3785,2.03597 -4.6796,3.70166 -5.1136,3.70166 -0.4341,0 -6.9912,2.42289 -14.5716,5.38417 -19.0456,7.44003 -48.9109,17.83562 -77.7903,27.07771 -36.4858,11.67627 -67.36138,21.84196 -80.5094,26.50756 -7.42588,2.6352 -21.60275,7.36621 -31.50393,10.51341 -9.90118,3.14738 -23.40265,7.48306 -30.00343,9.63512 -6.60078,2.15187 -17.40223,5.67414 -24.003,7.82716 -6.60079,2.15282 -20.10226,6.44719 -30.00363,9.54295 -9.90117,3.09573 -21.15245,6.70426 -25.00291,8.01898 -3.85045,1.31472 -15.10174,4.92075 -25.00292,8.01342 -9.90117,3.09269 -21.15265,6.67768 -25.00312,7.96658 -3.85045,1.2889 -10.8261,3.5561 -15.50166,5.03837 -8.16759,2.5891 -28.80659,12.01576 -34.00415,15.53113 -1.37517,0.92991 -5.17307,3.40712 -8.43976,5.50485 -22.99051,14.76284 -47.7216,40.79972 -62.32516,65.61577 -12.11747,20.59121 -18.144,36.59437 -21.28957,56.53308 l -2.02296,12.82306 -0.6203,18.76649 -0.6203,18.76629 1.65622,8.23682 c 0.91093,4.5304 3.02516,15.4378 4.6983,24.23884 1.67315,8.80104 3.68209,19.15226 4.46431,23.00272 0.7822,3.85046 3.03408,15.55177 5.00418,26.00302 1.97009,10.45124 4.87957,25.75323 6.46553,34.00421 1.58594,8.25098 3.85932,20.17742 5.05193,26.50316 1.1926,6.32576 3.27743,17.12701 4.63294,24.00283 1.35548,6.87581 2.85793,14.75172 3.33875,17.50205 0.48082,2.75033 2.2715,12.20147 3.97926,21.00251 3.09491,15.94961 12.88904,67.26099 15.55831,81.5097 1.95095,10.41433 7.29841,38.22343 13.94281,72.50864 3.09144,15.9519 6.05506,31.25369 6.58582,34.00403 0.53077,2.75032 1.24261,7.77782 1.58184,11.17182 l 0.61679,6.1714 -3.54296,6.3303 -3.54292,6.3302 -7.33888,7.0937 c -4.03639,3.9016 -8.37497,7.6429 -9.64127,8.3141 l -2.30238,1.2202 -5.19852,-1.6522 c -2.85918,-0.9089 -7.10634,-2.5124 -9.43813,-3.5636 -2.33179,-1.0511 -4.50095,-1.9111 -4.8204,-1.9111 -1.17719,0 -10.02742,-6.4836 -12.67845,-9.2882 -1.5049,-1.592 -3.14488,-4.5414 -3.64441,-6.5543 -0.93523,-3.7685 -1.12065,-6.2844 -6.12954,-83.16945 -1.63052,-25.02797 -3.63129,-54.95643 -4.44617,-66.5078 -2.37994,-33.7374 -4.44943,-63.91698 -6.54941,-95.5115 -7.5077,-112.9539 -9.76426,-145.84038 -10.97987,-160.0191 -1.36823,-15.9584 -1.2064,-34.6545 0.40255,-46.50557 3.26901,-24.52993 11.84136,-46.65762 21.41101,-69.10139 m -68.17054,10.76252 c -2.95099,-7.49913 9.39693,25.00731 12.31758,42.3359 l 2.02276,12.0014 0.62313,16.00201 0.62311,16.00182 -1.13598,19.00231 c -1.03397,17.29646 -3.45911,52.69744 -6.09768,89.01075 -0.55955,7.70091 -1.45859,20.07739 -1.9979,27.50326 -0.53929,7.42588 -2.35193,34.65413 -4.02808,60.50719 -1.67615,25.85307 -3.49245,53.08132 -4.03627,60.50719 -0.54379,7.42589 -1.41568,20.25239 -1.93753,28.50338 -0.52189,8.25097 -1.42252,22.42778 -2.00144,31.50385 -1.30036,20.38647 -3.50676,55.51284 -5.55964,88.51045 l -1.5555,25.00318 -1.47347,4.0881 c -2.57233,7.137 -11.43183,13.4332 -29.40501,20.8973 -4.65886,1.9348 -8.51567,3.5179 -8.57069,3.5179 -0.0551,0 -1.02675,-1.0127 -2.15937,-2.2504 l -2e-5,0 c -1.13262,-1.2376 -5.6674,-5.7477 -10.07725,-10.0222 l -8.01789,-7.7721 -3.71334,-6.2297 -3.71337,-6.2295 0.51683,-8.501 c 0.81679,-13.43489 13.13719,-78.70107 22.2297,-117.75934 0.86494,-3.71561 2.42756,-11.03114 3.47247,-16.25677 1.04493,-5.22562 2.57746,-12.6515 3.40561,-16.50195 0.82817,-3.85046 3.31159,-16.45186 5.51871,-28.00323 4.01085,-20.99161 6.29559,-32.24481 12.0818,-59.50727 1.69283,-7.97595 4.16572,-19.90239 5.4953,-26.50317 1.32958,-6.60079 3.57384,-17.40203 4.98724,-24.00282 1.41336,-6.60078 3.43987,-16.27685 4.50333,-21.50247 2.62889,-12.91811 11.13158,-53.73694 15.52046,-74.50899 l 3.59234,-17.00192 0.58008,-17.00209 0.5801,-17.00211 -1.09861,-10.00121 c -1.70653,-15.53552 -4.85169,-29.79227 -9.78104,-44.3363 -5.27269,-15.55713 -8.57907,-22.9613 -16.12114,-36.10148 -15.83094,-27.58149 -32.97664,-44.77849 -63.45752,-63.64749 -14.86106,-9.19982 -20.21793,-11.3278 -75.31836,-29.91966 -5.50067,-1.85599 -19.22731,-6.59332 -30.50366,-10.52717 -20.25913,-7.06785 -37.81062,-13.12602 -68.00811,-23.47379 -29.52546,-10.11768 -50.59946,-17.38883 -71.00846,-24.50047 -11.27635,-3.92926 -24.32791,-8.42255 -29.00346,-9.98515 -4.67555,-1.56279 -19.75235,-6.75723 -33.504,-11.54334 -13.75163,-4.7861 -27.47827,-9.50526 -30.50363,-10.48682 -3.02537,-0.98153 -13.15157,-4.46899 -22.50269,-7.75006 -9.351106,-3.28088 -22.627686,-7.88969 -29.503522,-10.24181 -16.06122,-5.49433 -17.329431,-6.18078 -20.825062,-11.27251 -4.713903,-6.86626 -7.369154,-14.29175 -10.026948,-28.04071 l -0.925797,-4.78917 4.674751,-4.42616 c 10.468609,-9.91168 22.307503,-16.49908 29.652004,-16.49908 l 3.474993,0 18.240561,8.88693 c 10.03232,4.88766 32.19225,15.74093 49.24428,24.11795 31.76284,15.60418 61.923,30.37925 99.0118,48.50462 11.55138,5.64506 37.65448,18.46201 58.00693,28.48196 20.35241,10.02014 43.08012,21.16584 50.506,24.76862 7.42589,3.60278 29.87937,14.58534 49.89658,24.40561 20.01723,9.82047 36.58978,17.85532 36.82792,17.85532 1.29479,0 21.77018,10.28465 27.55675,13.84172 3.72263,2.28824 7.00926,4.16049 7.30363,4.16049 0.29434,0 5.12449,3.68215 10.73365,8.18251 9.26872,7.43659 21.56908,19.21671 30.70094,29.40229 5.229,5.8323 21.39765,30.42038 25.61443,38.95251 M 345.58137,1003.6074 c -6.54136,-9.16654 -11.56075,-19.07404 -12.24391,-24.1673 l -0.49066,-3.65805 17.71723,-35.9683 c 9.74445,-19.78247 23.12866,-46.99464 29.74266,-60.47124 6.614,-13.4766 21.24478,-43.18014 32.51282,-66.00784 11.26808,-22.82771 26.79407,-54.33139 34.50223,-70.00825 7.70817,-15.67686 25.02782,-50.78119 38.48812,-78.00944 30.69838,-62.09847 34.76486,-71.65442 38.72838,-91.01075 l 1.53594,-7.50086 8e-4,-10.00159 c 0.002,-20.85256 -7.35415,-42.7431 -21.33449,-63.48981 -13.34983,-19.81133 -29.43745,-33.17776 -48.86382,-40.59867 l -9.31035,-3.55649 -11.50138,-0.87062 c -6.32575,-0.47872 -21.62757,-1.37057 -34.00405,-1.98185 -12.37648,-0.61126 -38.02952,-1.96921 -57.00681,-3.01789 -18.97725,-1.04869 -47.78069,-2.61225 -64.00763,-3.47445 -16.22693,-0.86239 -41.42994,-2.23716 -56.00667,-3.05519 -14.57675,-0.81783 -39.32968,-2.16239 -55.00656,-2.98787 -15.67687,-0.82549 -36.37935,-1.92982 -46.00549,-2.45425 -9.62614,-0.52425 -26.728189,-1.43829 -38.004528,-2.031 -11.276359,-0.59253 -27.601594,-1.49528 -36.27832,-2.00576 l -15.775886,-0.92819 -4.296323,-2.95592 c -2.362986,-1.62591 -6.212143,-5.43926 -8.553689,-8.47437 -4.628199,-5.99909 -14.1052168,-23.14005 -14.1052168,-25.51206 0,-2.74152 13.6522548,-17.31462 21.3989958,-22.84244 1.707153,-1.21813 3.561004,-2.59999 4.119636,-3.07088 1.699886,-1.43254 7.612351,-3.21527 10.663474,-3.21527 1.583827,0 8.380003,1.09496 15.102582,2.43359 6.722599,1.33844 17.398514,3.38798 23.724265,4.55469 6.325752,1.16668 14.651743,2.74955 18.502201,3.51746 3.850449,0.76811 15.326839,2.97143 25.503039,4.89628 56.93441,10.76968 72.582,13.75679 131.01564,25.01037 12.92654,2.48964 34.30409,6.55029 47.50565,9.02386 13.20157,2.47357 33.67902,6.34928 45.50544,8.61284 11.8264,2.26339 26.0031,4.94945 31.50375,5.96907 5.50066,1.0194 13.37659,2.53246 17.50211,3.36216 4.12549,0.82969 12.67649,2.46 19.00225,3.62267 6.32576,1.16267 14.65175,2.72928 18.50222,3.48132 3.85045,0.75203 8.84279,1.62189 11.09407,1.93268 7.62773,1.05366 25.7752,9.75468 37.05056,17.7643 15.69129,11.14647 32.84405,30.8287 39.07332,44.83519 1.34549,3.02536 3.31104,7.3008 4.36788,9.50105 1.05684,2.20027 3.51525,9.61104 5.46311,16.46831 l 3.54156,12.46789 1.0405,10.3384 1.04046,10.3382 -1.14359,12.65112 -1.14363,12.65112 -5.36907,16.04887 c -2.95296,8.82687 -9.05013,26.17515 -13.54927,38.55163 -4.49915,12.37646 -9.72631,27.00311 -11.61594,32.50377 -1.88964,5.50065 -3.82288,11.12639 -4.29609,12.50154 -0.4732,1.37518 -2.7326,7.67588 -5.02089,14.00162 -4.36749,12.07352 -10.62346,29.75537 -12.03094,34.00421 -0.45556,1.37518 -2.475,7.00072 -4.48768,12.50137 -2.01267,5.50064 -4.9073,13.60168 -6.43252,18.00221 -1.52524,4.40052 -6.476,18.35222 -11.00171,31.00372 -9.31333,26.03515 -17.65925,49.52156 -22.56745,63.50749 -8.13431,23.17886 -14.65188,41.41709 -18.91453,52.92906 -2.53027,6.83355 -4.6005,13.0279 -4.6005,13.7654 0,0.73732 -0.45652,2.12222 -1.01453,3.07738 -0.55798,0.95515 -2.84669,6.91236 -5.08599,13.2381 -7.22282,20.40353 -15.96744,45.34601 -18.04054,51.45755 -3.71378,10.94831 -5.36905,12.97771 -12.86333,15.77091 -5.27111,1.9645 -19.75194,4.7802 -24.58462,4.7802 l -3.36116,0 z m 463.02813,-4.73848 c -0.55006,-0.1817 -5.22639,-1.31472 -10.39176,-2.51871 -16.09285,-3.75024 -25.30319,-9.14818 -28.14647,-16.49565 -0.63862,-1.6502 -6.24791,-17.85206 -12.46503,-36.00427 -6.2173,-18.15215 -14.51534,-42.23013 -18.44039,-53.50648 -3.92486,-11.27632 -9.35225,-27.02817 -12.0607,-35.00412 -2.70844,-7.97595 -7.67547,-22.37767 -11.03784,-32.00381 -3.36236,-9.62614 -8.73814,-25.15306 -11.94621,-34.50417 -9.55288,-27.84543 -17.4993,-50.8493 -24.52903,-71.00835 -3.64445,-10.45124 -8.12484,-23.50286 -9.95642,-29.00352 -1.83162,-5.50066 -6.54921,-19.22723 -10.48359,-30.50356 -3.93436,-11.27635 -8.26799,-23.85403 -9.63024,-27.95045 -4.20625,-12.64804 -9.45115,-27.23014 -12.42966,-34.55713 l -2.84593,-7.00072 -1.18202,-8.50114 c -1.43864,-10.34644 -1.4491,-33.62897 -0.0172,-37.39622 0.57271,-1.50619 1.04128,-3.91454 1.04128,-5.35148 0,-2.81459 4.26519,-15.33584 9.18914,-26.97653 3.22891,-7.63339 12.35173,-21.64735 19.8306,-30.46274 10.91086,-12.86074 22.76804,-22.6309 36.32709,-29.93324 16.68292,-8.98485 23.02703,-10.75209 62.66845,-17.45787 8.52602,-1.4423 20.45246,-3.52436 26.50316,-4.6266 6.05073,-1.10242 13.25169,-2.38616 16.00201,-2.85303 2.75033,-0.46668 17.37698,-3.15274 32.50378,-5.96866 15.12679,-2.81594 32.22893,-5.96963 38.00462,-7.00798 5.77568,-1.03836 18.15215,-3.2807 27.50326,-4.9831 9.3511,-1.70242 19.25229,-3.48554 22.00262,-3.96216 5.35128,-0.92762 35.36511,-6.45504 57.50677,-10.59067 21.24982,-3.96905 48.91502,-9.02195 68.00802,-12.42142 11.3001,-2.01206 68.2703,-12.45564 76.5091,-14.02552 16.4154,-3.12806 23.071,-4.20868 25.9201,-4.20868 5.6797,0 11.8812,4.77538 21.8253,16.80606 l 6.6991,8.10486 -3.5405,8.3971 c -4.9361,11.70783 -8.7762,18.10281 -13.354,22.23844 l -3.9267,3.5475 -3.31,0.5493 c -3.4897,0.57914 -18.7698,1.65441 -58.3167,4.10368 -13.2015,0.81765 -33.454,2.14824 -45.0054,2.9567 -11.5513,0.80846 -28.6534,1.94035 -38.0046,2.51546 -63.23001,3.88872 -169.3795,10.66699 -188.5222,12.03814 -7.42588,0.53188 -25.20299,1.64388 -39.50468,2.47089 -48.11733,2.78285 -65.41416,5.93041 -84.42753,15.36396 -11.95004,5.92907 -24.12298,16.90877 -35.06022,31.62359 -10.71687,14.41809 -17.83762,29.36873 -22.1499,46.5053 l -2.13921,8.50114 -0.0925,12.50137 -0.0926,12.50155 2.31867,9.00111 2.31865,9.00109 29.78699,59.00694 c 16.38285,32.45386 38.89465,77.00935 50.02621,99.01196 11.13137,22.00261 30.93887,61.15727 44.01651,87.01035 13.07763,25.85308 32.00918,63.2076 42.07005,83.00976 l 18.29254,36.00446 0.0689,6.09394 c 0.0383,3.35164 -0.46458,7.17705 -1.11678,8.50095 -0.65199,1.32391 -2.09773,4.43228 -3.21259,6.90757 -2.16641,4.80944 -4.71878,9.3471 -9.98534,17.75222 l -3.29006,5.25047 -2.66464,-0.0784 c -1.46544,-0.042 -3.11449,-0.22741 -3.66456,-0.40891 z m -584.79275,-62.69333 -4.72358,-1.03281 -5.44953,-11.14801 c -2.99727,-6.13161 -5.98256,-13.52326 -6.63403,-16.42584 l -1.18446,-5.27764 0.64184,-3.42126 c 0.64887,-3.45876 3.59956,-7.46853 12.94052,-17.58508 2.82278,-3.05692 7.60761,-8.42291 10.63297,-11.92395 3.02536,-3.50101 6.43621,-7.3006 7.57964,-8.44318 1.14345,-1.14279 4.51886,-5.00301 7.50089,-8.57843 2.98206,-3.57542 5.64696,-6.72587 5.92199,-7.0009 0.27503,-0.27504 2.75033,-2.98098 5.50065,-6.01323 5.0996,-5.62249 9.67967,-10.77314 31.55892,-35.49165 6.8164,-7.70091 12.8554,-14.49009 13.42,-15.08682 0.56461,-0.59693 3.50185,-3.94227 6.52722,-7.43449 3.02536,-3.49204 7.58121,-8.62929 10.12409,-11.41634 2.54289,-2.78686 5.91827,-6.61914 7.5009,-8.51608 1.5826,-1.89691 3.77757,-4.39573 4.87769,-5.55305 3.5435,-3.72709 9.77411,-10.71326 20.9601,-23.50172 6.01422,-6.87581 12.98467,-14.76818 15.48987,-17.53858 2.50521,-2.77042 6.09546,-6.82093 7.97832,-9.00111 1.88289,-2.18017 5.48332,-6.21845 8.00097,-8.97395 2.51766,-2.75568 7.05286,-7.91933 10.07821,-11.47505 5.16021,-6.06487 12.88291,-14.90015 14.00166,-16.01883 0.63543,-0.63556 12.80827,-14.66453 15.61408,-17.99494 3.9594,-4.69986 23.85277,-27.50883 24.43015,-28.01068 0.31646,-0.27504 3.69132,-4.32537 7.49975,-9.00093 3.80843,-4.67555 7.6832,-9.40121 8.61062,-10.50135 0.92743,-1.10014 4.68631,-5.8256 8.3531,-10.50135 3.66679,-4.67555 7.42248,-9.40103 8.34598,-10.50116 13.70601,-16.32734 18.1767,-26.75219 18.14239,-42.30435 -0.0405,-18.41074 -8.87512,-34.95515 -24.09172,-45.11636 l -6.07953,-4.05969 -7.15963,-2.13466 -7.15962,-2.13447 -6.00073,0.56001 c -3.30038,0.30793 -16.12691,2.57227 -28.50341,5.03169 -12.37646,2.45941 -40.05477,7.9179 -61.50731,12.13002 -21.45259,4.21215 -46.65559,9.17191 -56.00671,11.0216 -9.3511,1.84986 -34.55413,6.80083 -56.00667,11.00244 -21.45257,4.20162 -46.65556,9.15106 -56.00669,10.99902 -9.35111,1.84776 -37.9295,7.46375 -63.50756,12.47975 -25.57806,5.01581 -57.676744,11.34825 -71.330434,14.07161 -13.653689,2.72356 -25.987688,4.95173 -27.408888,4.95173 -5.138367,0 -11.010678,-5.72901 -20.399104,-19.90161 L 0,539.00354 1.7567282,534.91726 C 7.7407544,520.99751 14.153014,511.83 20.030947,508.7903 l 3.210404,-1.66014 18.139407,-1.42986 c 9.976667,-0.78646 30.51587,-2.31827 45.642686,-3.40368 15.126796,-1.08558 33.353956,-2.4378 40.504816,-3.00489 7.15087,-0.56708 22.45268,-1.68185 34.00406,-2.4773 11.55139,-0.79564 23.70283,-1.69591 27.00322,-2.00058 3.30039,-0.30487 18.60222,-1.4534 34.00404,-2.55256 15.40186,-1.099 34.3041,-2.44892 42.00503,-2.99974 7.70092,-0.55083 18.95225,-1.42508 25.00298,-1.94302 6.05071,-0.51774 20.9025,-1.6368 33.00394,-2.48676 12.10143,-0.84997 30.77866,-2.21136 41.50495,-3.02517 10.72627,-0.81382 26.0281,-1.95469 34.00407,-2.53517 7.97595,-0.58066 20.12739,-1.76896 27.00321,-2.64092 l 12.5015,-1.58517 9.50111,0.53554 9.50114,0.53553 8.52505,2.88593 c 10.24527,3.46831 17.66104,8.20909 25.02369,15.99684 9.15696,9.68591 13.14077,16.20981 17.58729,28.80087 l 1.76592,5.00069 -0.006,13.00152 -0.006,13.0015 -1.70422,6.38066 c -2.42069,9.06288 -7.10524,18.1051 -15.40958,29.74426 -2.69995,3.78409 -11.59402,16.78158 -19.76458,28.88302 -20.27276,30.02599 -34.44562,50.95258 -43.18078,63.75747 -4.03382,5.9132 -10.63479,15.58945 -14.66882,21.50265 -4.03405,5.91321 -13.10905,19.30221 -20.16673,29.75346 -7.05764,10.45124 -16.5059,24.40293 -20.99608,31.00372 -4.49019,6.60077 -14.70011,21.67766 -22.68873,33.50407 -7.9886,11.8264 -17.58259,26.00301 -21.31998,31.50366 -3.7374,5.50066 -13.3364,19.67747 -21.33113,31.50387 -7.99474,11.82641 -15.69302,23.13716 -17.10728,25.13489 -4.60597,6.50649 -5.48683,7.81127 -12.25696,18.15617 -3.67684,5.61847 -7.07611,10.66526 -7.55392,11.21532 -0.47783,0.55008 -3.15531,4.37567 -5.95,8.50115 l -5.08119,7.50086 -3.36675,1.9935 -3.36675,1.99371 -12.5015,0.18553 c -6.87581,0.10136 -14.62708,-0.27868 -17.22506,-0.84671 z m 693.51596,-6.88405 c -1.80972,-0.56153 -4.69545,-1.8755 -6.41297,-2.92016 l -3.12271,-1.89903 -12.79858,-18.81449 c -7.03915,-10.34796 -17.9653,-26.46529 -24.28034,-35.81641 -6.31505,-9.35111 -18.50771,-27.35331 -27.09493,-40.00482 -8.5874,-12.6515 -21.24369,-31.32866 -28.12543,-41.50487 -6.88174,-10.17622 -18.4643,-27.27835 -25.73927,-38.00462 -24.126,-35.5716 -44.2531,-65.32237 -54.46662,-80.50961 -5.54884,-8.25097 -10.5415,-15.52309 -11.09444,-16.16018 -0.55313,-0.63708 -2.57532,-3.56241 -4.49366,-6.50075 -6.27078,-9.60414 -32.94639,-48.51284 -40.05257,-58.41996 -11.10516,-15.48217 -13.4897,-20.24607 -16.51909,-33.00144 -2.42368,-10.20489 -2.50745,-13.50643 -0.59452,-23.434 5.03554,-26.13346 19.5269,-43.5549 44.55983,-53.56988 l 6.50078,-2.60095 11.00126,-0.88363 11.00131,-0.88362 11.50145,0.94826 c 6.32576,0.52138 21.17752,1.63376 33.00392,2.47186 11.82641,0.8381 26.45306,1.96157 32.50397,2.49673 6.05071,0.53494 17.97696,1.45108 26.50297,2.03539 8.5262,0.58448 24.27804,1.7288 35.00431,2.5428 10.72628,0.8142 31.87874,2.36149 47.00554,3.43867 15.12679,1.07699 35.8293,2.61109 46.00551,3.40904 10.17602,0.79793 25.70293,1.94282 34.50387,2.54415 8.8011,0.60132 21.1775,1.5251 27.5033,2.0526 30.7067,2.5605 38.0633,3.1293 58.5069,4.52283 12.1015,0.82472 33.134,2.36494 46.739,3.42242 l 24.7361,1.92293 3.4497,2.63117 c 5.8001,4.42386 10.2633,11.47755 16.5334,26.12848 l 2.1953,5.12943 -4.7182,7.37194 c -6.309,9.85776 -10.9644,15.42899 -16.2918,19.49691 l -4.4229,3.37689 -3.6066,0 c -3.5074,0 -18.4641,-2.79546 -48.1119,-8.99211 -7.976,-1.66702 -19.9024,-4.12721 -26.5033,-5.46718 -6.6007,-1.33978 -26.4031,-5.39622 -44.0052,-9.0143 -17.602,-3.61808 -36.27921,-7.44462 -41.50476,-8.50345 -5.22562,-1.05881 -25.02778,-5.1078 -44.00504,-8.99784 -54.9521,-11.26449 -154.05088,-31.13809 -159.51921,-31.99054 -4.3837,-0.68337 -17.4269,-2.8647 -43.50509,-7.27554 -4.12548,-0.69772 -12.90166,-1.25314 -19.50245,-1.23421 l -12.00136,0.0344 -6.17258,2.61415 c -16.44584,6.96475 -28.01379,19.62955 -33.09111,36.22905 l -1.55784,5.09308 -0.0222,8.00099 c -0.031,11.2052 1.93621,18.70549 6.55767,25.00293 0.69053,0.94099 9.89012,12.14313 14.28317,17.39247 1.10036,1.31471 3.85826,4.46517 6.12868,7.00071 2.27043,2.53573 13.68056,15.6367 25.3559,29.11329 11.67532,13.47661 22.42665,25.85307 23.89209,27.50327 1.46524,1.6502 7.15161,8.17601 12.6362,14.50176 5.48439,6.32575 10.20374,11.72637 10.48719,12.00141 0.28345,0.27504 4.54837,5.22562 9.47773,11.0013 4.92936,5.77569 9.20652,10.72628 9.50469,11.00131 0.29818,0.27503 3.01466,3.4207 6.03657,6.99057 5.00261,5.90938 7.70493,9.00627 13.49535,15.46514 1.10013,1.22732 3.12538,3.55018 4.50054,5.16193 1.37517,1.61176 5.42569,6.28597 9.00111,10.38698 3.57542,4.10082 7.45974,8.59143 8.63197,9.97883 1.17224,1.3874 5.89772,6.81977 10.50115,12.07198 4.60365,5.25202 13.54566,15.5537 19.87141,22.89275 6.32575,7.33886 11.96335,13.84286 12.52794,14.45355 0.5646,0.6105 5.49645,6.28558 10.95962,12.61134 5.46316,6.32574 10.18864,11.72657 10.50097,12.0016 0.31252,0.27504 3.02459,3.42528 6.027,7.0007 3.0026,3.57544 7.4913,8.76759 9.975,11.53799 5.25241,5.85831 8.44224,9.53797 16.0173,18.47597 3.02536,3.56968 5.95089,6.9898 6.50095,7.60031 0.55007,0.61031 2.35021,2.64417 4.00041,4.51948 1.65027,1.8755 6.18181,7.00166 10.07014,11.39167 3.88832,4.39019 7.82638,9.09463 8.75112,10.45468 2.19988,3.23555 2.1272,8.37206 -0.22224,15.7264 -2.66541,8.34393 -10.65532,23.92211 -12.66489,24.69327 -0.92112,0.35345 -6.90879,0.85283 -13.30569,1.10969 l -11.63075,0.46707 -3.29025,-1.02077 z M 135.02916,836.68759 C 128.49227,835.48073 115.6684,830.424 110.912,827.17772 l -2.61458,-1.78445 -1.08252,-5.77932 c -0.59539,-3.17856 -1.377,-8.75189 -1.73692,-12.38508 l -0.65438,-6.60595 1.13683,-5.47597 1.13684,-5.47619 2.71461,-3.06742 c 1.49303,-1.68712 10.3655,-8.22038 19.71663,-14.51821 22.98735,-15.48197 29.81946,-20.11641 31.00319,-21.03063 0.55033,-0.42498 11.35184,-7.82256 24.00337,-16.43903 12.6515,-8.61649 23.22776,-15.91958 23.5028,-16.22923 0.27503,-0.30965 1.27985,-1.01291 2.23295,-1.56298 1.86353,-1.07565 4.62122,-2.95402 47.27295,-32.1991 15.40184,-10.56065 34.30409,-23.50669 42.005,-28.76903 7.70094,-5.26234 23.45281,-16.06493 35.00418,-24.00606 11.55138,-7.94114 39.00467,-26.48347 61.00728,-41.20518 22.00263,-14.7219 47.45951,-32.07058 56.57084,-38.55296 l 16.56609,-11.78586 1.70489,-3.57523 1.70489,-3.57523 -1.0433,-3.87456 c -0.57382,-2.13103 -2.41714,-5.24838 -4.09621,-6.92765 l -3.0529,-3.05272 -3.3523,0 -3.3523,0 -16.82318,8.11769 c -9.25275,4.46459 -22.44884,10.79933 -29.32466,14.07677 -14.03007,6.688 -61.83236,30.60953 -105.51259,52.8013 -15.95189,8.10448 -54.20648,27.45928 -85.01016,43.01067 -30.80365,15.55159 -67.48302,34.13829 -81.5097,41.30387 -14.02668,7.16576 -34.77642,17.68241 -46.110552,23.3705 l -20.607502,10.34222 -4.165329,0 -4.165311,0 -6.108365,-2.48217 c -6.729904,-2.73446 -25.695862,-14.93993 -26.509332,-17.05968 -0.943736,-2.45942 1.550779,-18.36542 3.972156,-25.32825 1.316007,-3.78409 3.641246,-8.44492 5.16718,-10.35734 l 2.774406,-3.47711 15.122417,-5.63071 c 8.317329,-3.09709 22.098244,-8.06508 30.624258,-11.04033 8.526031,-2.97524 21.802614,-7.66821 29.503524,-10.42867 7.70092,-2.76065 24.3529,-8.68839 37.00442,-13.17269 24.17631,-8.56923 42.07435,-14.96633 64.50769,-23.05569 7.42588,-2.67784 21.37755,-7.64067 31.0037,-11.02885 9.62614,-3.38799 21.74594,-7.72674 26.93287,-9.64164 5.18693,-1.91489 11.93771,-4.29513 15.00179,-5.28949 3.06404,-0.99418 13.22191,-4.59465 22.57302,-8.00101 25.36503,-9.23941 25.92795,-9.44061 40.50483,-14.46503 13.9473,-4.80734 39.98366,-14.12134 43.5052,-15.56325 1.10013,-0.45043 6.95083,-2.50934 13.00155,-4.57534 6.05072,-2.06619 16.17693,-5.72328 22.50268,-8.12686 6.32576,-2.40357 14.74349,-4.88192 18.7061,-5.50754 l 7.20469,-1.13722 4.24322,1.2713 c 5.98904,1.79441 10.02767,5.20076 14.22114,11.99471 l 3.63058,5.88203 0,5.92181 c 0,3.25698 -0.73093,8.06699 -1.6243,10.68897 l -1.62429,4.76698 -3.62634,3.66207 c -1.99447,2.01417 -4.97647,4.75569 -6.62668,6.09242 -1.6502,1.33652 -6.18883,5.16212 -10.08586,8.50096 -3.89703,3.33903 -9.50415,8.09606 -12.46028,10.57135 -11.48833,9.61963 -61.95238,52.93327 -62.96407,54.04238 -0.27502,0.30163 -3.65042,3.2369 -7.50089,6.52296 -3.85047,3.28623 -8.35099,7.156 -10.00119,8.59982 -1.65019,1.44365 -7.27586,6.33896 -12.50149,10.87834 -5.22563,4.53937 -14.45173,12.60386 -20.50244,17.92111 -6.05072,5.31742 -14.60174,12.75726 -19.00228,16.53332 -4.40052,3.77606 -9.12607,7.8763 -10.50123,9.11184 -4.17863,3.75407 -21.04253,18.53603 -29.00207,25.4214 -4.1247,3.56798 -7.99784,6.93741 -8.60699,7.48747 -12.79749,11.55673 -17.77197,15.97102 -21.45348,19.03769 -2.44477,2.03655 -4.67007,3.9876 -4.9451,4.33569 -0.27504,0.3481 -2.30028,2.15398 -4.50055,4.01322 -2.20027,1.85906 -6.25074,5.46298 -9.00107,8.00885 -2.75033,2.54568 -7.92595,7.09424 -11.50138,10.10773 -3.57542,3.0137 -7.17584,6.15975 -8.00095,6.99134 -1.7785,1.79249 -9.4091,8.51206 -13.56133,11.94212 -1.61735,1.33614 -5.86598,4.9854 -9.44141,8.10964 -3.57542,3.12404 -7.57227,6.53135 -8.88189,7.57181 -1.30962,1.04046 -4.26243,3.46697 -6.56184,5.39221 -2.29939,1.92523 -6.04424,5.00395 -8.32187,6.84158 -2.2776,1.83763 -5.15531,4.22074 -6.39486,5.29581 -6.00677,5.20975 -12.56864,7.37367 -18.84538,6.21483 z m 888.60574,-3.98472 c -2.3795,-1.33234 -13.1214,-9.91553 -15.5018,-12.38642 -0.275,-0.28537 -6.5757,-5.67757 -14.00163,-11.98228 -7.42581,-6.30491 -13.72651,-11.70878 -14.00154,-12.00868 -0.27502,-0.2999 -4.77138,-4.13391 -9.99164,-8.52008 -5.22065,-4.38599 -9.98437,-8.42483 -10.58626,-8.97491 -2.29189,-2.09411 -13.20961,-11.43776 -19.92695,-17.05374 -6.76642,-5.65691 -16.50808,-14.02897 -29.00332,-24.92565 -7.54102,-6.57611 -24.58043,-21.04441 -29.54613,-25.08803 -2.06676,-1.68291 -6.61569,-5.55593 -10.10869,-8.60673 -3.4928,-3.0506 -16.02688,-13.79275 -27.85327,-23.87142 -11.8264,-10.07847 -23.55125,-20.15714 -26.05524,-22.39699 -2.50398,-2.23986 -6.99497,-6.09758 -9.98016,-8.57288 -2.98501,-2.47529 -9.03725,-7.66763 -13.44945,-11.53836 -4.41218,-3.87073 -13.64778,-11.74664 -20.52359,-17.50205 -6.87582,-5.75543 -13.10422,-11.03498 -13.84095,-11.73231 -0.73655,-0.69734 -7.48747,-6.53862 -15.00171,-12.98029 -7.51425,-6.44165 -13.88743,-11.97769 -14.16247,-12.30187 -0.27503,-0.32438 -7.25336,-6.24007 -15.50729,-13.14591 -16.99698,-14.2208 -22.7365,-20.05463 -24.95587,-25.36631 l -1.5418,-3.69018 0,-5.8937 0,-5.8937 2.99414,-5.30538 c 1.64678,-2.91786 4.00957,-6.24484 5.25062,-7.39317 3.51371,-3.25086 9.89633,-6.19722 14.79497,-6.82915 l 4.46355,-0.57608 4.50048,1.45569 c 2.47528,0.80061 10.80144,3.7139 18.50235,6.47397 7.70092,2.76009 20.52742,7.35761 28.50337,10.21695 7.97595,2.85936 19.45235,6.92 25.50306,9.02387 6.05072,2.10368 18.87723,6.59601 28.50338,9.98265 31.94472,11.23885 63.37877,22.16251 73.5087,25.54514 5.50065,1.83688 19.22741,6.53079 30.50375,10.43098 11.27634,3.89999 29.72847,10.20451 41.00482,14.00964 11.27613,3.80512 37.82937,12.82421 59.00687,20.04256 21.1775,7.21819 40.5298,13.70383 43.0052,14.41225 2.4752,0.70844 10.5763,3.54578 18.0021,6.3051 7.4259,2.75912 20.0254,7.43182 27.9988,10.38335 l 14.4974,5.36677 3.5299,3.52551 3.5301,3.5257 2.2586,5.90192 2.2586,5.90209 0.5716,10.5748 0.5715,10.57461 -5.8136,4.50055 c -16.1737,12.52107 -25.2905,15.63421 -33.9132,11.58025 -6.3926,-3.00546 -28.6395,-13.69004 -46.4934,-22.32947 -9.0761,-4.39192 -23.2529,-11.24708 -31.5039,-15.23371 -8.251,-3.98664 -21.9775,-10.63237 -30.50346,-14.76857 -20.21164,-9.80498 -43.85987,-21.21041 -57.00661,-27.4939 -21.08611,-10.07828 -34.96339,-16.77125 -56.50679,-27.25252 -12.10143,-5.88757 -24.8327,-12.02914 -28.29164,-13.64759 -3.45896,-1.61844 -18.76074,-9.05064 -34.00403,-16.51611 -80.70736,-39.52648 -97.31298,-47.37333 -103.47416,-48.89634 -3.64151,-0.90006 -6.80925,-0.0211 -9.94044,2.75932 -4.96156,4.40512 -6.08044,9.42474 -3.29948,14.80242 l 1.51181,2.9236 6.73916,4.47704 c 3.70654,2.46247 11.91479,8.08017 18.24054,12.48414 29.85366,20.78314 43.19695,29.77411 81.00974,54.58595 66.08377,43.3626 86.45302,56.75064 124.03553,81.52539 11.26494,7.42588 20.93182,13.72658 21.48189,14.00162 0.55006,0.27502 9.77608,6.30872 20.50218,13.40831 16.17088,10.70294 26.27776,17.35403 41.17636,27.09665 0.8412,0.55006 3.5095,2.31406 5.9297,3.91988 2.42,1.60582 12.051,7.95836 21.4021,14.11657 18.4539,12.15307 19.519,13.0692 21.903,18.84011 l 1.5999,3.87246 -0.019,8.6289 c 0,4.74595 -0.2972,12.36921 -0.6529,16.94053 l -0.6472,8.31161 -4.5976,2.30106 c -2.5287,1.26556 -7.5229,3.32735 -11.0983,4.58164 l -6.5009,2.28059 -8.0008,0.38118 -8.001,0.38099 -3.0003,-1.67983 z M 558.07962,414.69824 c -22.02069,-2.90084 -42.54372,-9.32643 -62.93435,-19.70385 -9.59726,-4.88423 -34.51643,-20.8168 -55.07973,-35.21623 -4.06497,-2.84652 -23.53684,-16.16783 -35.00417,-23.94754 -2.4753,-1.67927 -4.72557,-3.29351 -5.00061,-3.58728 -0.27502,-0.29378 -6.12573,-4.31044 -13.00155,-8.92595 -6.87581,-4.61568 -15.87688,-10.7104 -20.00236,-13.54373 -15.97431,-10.97166 -30.3219,-20.72211 -51.00609,-34.66368 -30.52228,-20.57256 -60.07422,-40.53155 -77.50927,-52.34915 -8.25097,-5.59247 -28.27836,-19.10005 -44.50529,-30.01702 -82.3432,-55.39746 -74.82757,-49.92913 -77.32478,-56.25985 l -1.68464,-4.27085 0.0614,-10.23092 c 0.0338,-5.62708 0.59882,-13.38134 1.25556,-17.23181 l 1.1941,-7.000897 3.78315,-1.850636 c 3.52176,-1.723063 8.40743,-3.286428 18.20865,-5.826557 2.20027,-0.570348 7.66707,-1.079481 12.14846,-1.131498 l 8.14796,-0.0956 3.86169,2.555624 c 3.34015,2.210402 26.95842,21.187658 28.34815,22.777598 0.27504,0.31463 3.20038,2.82206 6.50078,5.57201 7.80741,6.50496 37.24899,32.72257 45.48677,40.50554 2.03771,1.92522 7.92567,7.32584 13.08436,12.0014 5.15868,4.67556 12.3377,11.20137 15.9534,14.50176 10.32599,9.42551 21.23839,19.00709 36.98878,32.47757 4.67555,3.99869 11.20133,9.74301 14.50173,12.76531 11.28846,10.33686 13.02242,11.90176 27.50693,24.82504 19.51844,17.41465 22.03444,19.6809 23.89925,21.52637 1.7281,1.71007 20.12304,18.33711 26.51915,23.9703 2.15407,1.8973 6.57826,5.90345 9.83154,8.90261 3.25325,2.99916 6.71518,6.14941 7.69319,7.00071 4.83207,4.20602 16.66422,14.78349 18.51277,16.54958 1.15147,1.10013 6.13448,5.66056 11.07336,10.13433 4.93889,4.47377 10.78,9.78508 12.98027,11.80288 29.80971,27.33917 71.17987,44.14886 117.09081,47.57682 l 14.4612,1.07986 14.23352,-1.06589 14.23356,-1.06591 12.39006,-3.09592 c 15.92055,-3.97803 34.55512,-12.09838 53.11781,-23.14712 9.24241,-5.50123 12.34674,-7.91225 30.53755,-23.71669 6.64783,-5.77568 14.53524,-12.58973 17.52788,-15.14229 2.99247,-2.55256 7.24112,-6.19742 9.4414,-8.09969 2.20026,-1.90228 12.32654,-10.56447 22.50274,-19.24923 18.77645,-16.02458 29.45355,-25.20585 31.41877,-27.01708 0.59674,-0.55007 5.81068,-5.01275 11.58636,-9.91725 5.7757,-4.9045 11.40143,-9.73363 12.50156,-10.73163 1.10013,-0.99799 3.1885,-2.83581 4.64075,-4.08436 1.45243,-1.24836 3.92773,-3.40559 5.50065,-4.79356 1.57312,-1.38818 6.01036,-5.17686 9.86082,-8.41929 8.91275,-7.50564 19.85342,-16.89884 20.50256,-17.60267 0.27504,-0.29818 3.6504,-3.23078 7.50085,-6.51682 3.85047,-3.28605 8.35102,-7.165 10.00121,-8.61973 1.6502,-1.45473 8.40092,-7.23788 15.00172,-12.85118 6.60078,-5.6133 13.35802,-11.39148 15.01605,-12.84066 1.65785,-1.449 7.73363,-6.68513 13.50146,-11.63572 5.76785,-4.95059 10.97549,-9.45114 11.57222,-10.0012 1.8975,-1.74869 12.38058,-10.76185 30.91888,-26.5837 9.90098,-8.45026 19.35213,-16.55703 21.00231,-18.01501 1.65021,-1.45799 6.98898,-6.05111 11.864,-10.207 l 8.8634,-7.55613 4.8726,-1.16898 4.8724,-1.16881 5.2661,0.66521 c 6.062,0.7658 9.4944,1.67544 19.3559,5.1296 l 7.0891,2.48296 1.237,5.20821 c 0.6804,2.86451 1.4884,9.49934 1.7956,14.74409 l 0.5587,9.53587 -1.597,5.49375 -1.5969,5.49359 -2.7872,2.61204 c -1.5327,1.43674 -7.2876,5.58174 -12.7882,9.21149 -5.5007,3.62974 -10.4513,6.9441 -11.0013,7.36545 -1.5393,1.17892 -87.496,58.62977 -89.41913,59.7649 -4.74307,2.79987 -22.63855,15.08951 -22.92736,15.74534 -0.1836,0.41617 -0.73463,0.75662 -1.22502,0.75662 -0.4904,0 -5.66609,3.26291 -11.50145,7.25089 -5.83556,3.98797 -11.35992,7.71142 -12.27664,8.27411 -3.62458,2.22513 -22.69976,14.93879 -23.1693,15.44257 -0.27504,0.29493 -1.26671,0.98634 -2.20371,1.53639 -1.4333,0.84156 -41.2262,27.34339 -45.80212,30.50396 -0.82509,0.56995 -6.22572,4.14195 -12.0014,7.9377 -5.77569,3.79595 -10.96211,7.27555 -11.52555,7.73266 -1.94551,1.57867 -87.58728,58.8547 -96.27479,64.3871 -7.44199,4.73944 -18.9269,10.27719 -30.71615,14.81046 -2.98183,1.14679 -12.43705,3.96291 -22.00264,6.55354 -22.84907,6.18803 -60.00704,8.36152 -85.5102,5.00185 z m 25.003,-21.94428 c -0.8251,-0.16448 -6.22575,-0.84365 -12.00145,-1.50962 -21.76853,-2.50991 -39.75925,-9.84437 -58.50697,-23.85229 -9.83153,-7.34593 -18.96291,-17.22091 -48.09276,-52.00929 -27.05508,-32.3106 -46.00946,-54.75867 -47.87523,-56.69937 -0.57397,-0.59712 -2.61877,-3.03933 -4.544,-5.42722 -1.92523,-2.38789 -8.00097,-9.58349 -13.50162,-15.98996 -5.50065,-6.40665 -11.57638,-13.62024 -13.50161,-16.0305 -3.59074,-4.495 -26.01365,-31.07658 -26.97291,-31.97533 -0.82561,-0.77345 -6.15073,-7.12502 -10.0315,-11.96526 -1.92523,-2.40108 -3.95685,-4.85418 -4.51469,-5.4513 -0.55787,-0.59711 -3.48324,-4.01093 -6.50078,-7.58634 -3.01758,-3.57544 -5.72837,-6.72588 -6.02399,-7.00091 -0.29563,-0.27503 -6.56879,-7.70092 -13.94037,-16.50196 -18.91881,-22.58748 -29.3392,-34.92264 -29.99292,-35.50408 -0.30914,-0.27504 -2.57497,-2.97544 -5.03513,-6.000799 -2.46016,-3.02536 -4.71144,-5.725764 -5.00284,-6.0008 -0.29138,-0.275035 -6.35605,-7.475992 -13.47702,-16.002005 -7.12096,-8.526012 -13.20623,-15.726781 -13.5228,-16.001813 -1.02627,-0.891657 -20.35168,-23.956149 -25.73491,-30.714341 l -5.23133,-6.567314 -0.63066,-3.361787 c -0.34688,-1.849106 -0.31828,-5.049469 0.0637,-7.112214 0.78296,-4.229918 5.65027,-19.3263049 7.57231,-23.4862409 l 1.26304,-2.7337061 3.5975,-0.766707 c 1.97856,-0.42169 9.93178,-0.766706 17.67378,-0.766706 l 14.07636,0 4.22544,2.797358 c 2.32401,1.5385385 4.54068,3.5637772 4.92593,4.5005331 0.38526,0.9367368 6.36871,10.2542046 13.29655,20.7054469 6.92784,10.451241 28.37765,42.855177 47.66621,72.008641 19.28856,29.153464 36.93837,55.706744 39.22179,59.007124 2.28343,3.3004 10.04477,15.00173 17.24748,26.00302 7.20268,11.00131 23.26434,35.29599 35.69254,53.98826 12.42823,18.69229 22.7575,34.36378 22.95395,34.82549 0.19644,0.4619 3.90938,6.02146 8.25098,12.35468 4.34159,6.33301 7.8938,11.73383 7.8938,12.0014 0,0.26757 0.56258,1.08541 1.25015,1.81755 0.68758,0.73195 4.40052,6.37396 8.25099,12.5377 19.27459,30.85434 36.9229,52.78657 50.50601,62.76522 11.21889,8.24179 20.17069,12.26133 37.68086,16.9191 l 6.82447,1.81543 20.00239,-0.0191 20.00239,-0.0191 11.30847,-3.23937 c 18.57574,-5.32125 32.25324,-12.71998 43.20474,-23.37146 l 5.50739,-5.35665 11.586,-17.50206 c 6.37229,-9.62615 15.82039,-23.99345 20.99577,-31.92731 5.17537,-7.93387 17.51075,-26.72044 27.41193,-41.74797 9.90119,-15.02735 24.52802,-37.2893 32.50397,-49.47088 7.97595,-12.18177 22.22964,-33.89998 31.67505,-48.26289 9.4452,-14.36289 21.89186,-33.31509 27.65915,-42.11633 5.76726,-8.80104 18.92675,-28.828511 29.24355,-44.505373 10.31658,-15.676862 20.73951,-31.591653 23.16202,-35.366371 2.42251,-3.774527 4.84387,-7.375007 5.38093,-8.000812 0.53686,-0.625996 4.17923,-6.088588 8.09414,-12.139307 3.91492,-6.050718 7.83423,-11.5586396 8.70963,-12.2395276 0.8754,-0.6810401 4.45177,-2.1437051 7.94764,-3.2504161 l 6.35615,-2.01221344 14.64635,0.0153034 c 8.05552,0.007697 15.13599,0.34597189 15.73425,0.75010473 0.59853,0.40411463 1.36147,1.63487618 1.6956,2.73500708 0.33413,1.1001308 1.98949,6.0506616 3.6787,11.0012499 l 3.07126,9.001104 0.62104,8.570958 0.62101,8.571151 -1.16267,3.430258 c -0.63938,1.886786 -2.83869,5.26655 -4.88747,7.51061 -2.04878,2.24406 -6.20037,6.951366 -9.22572,10.460614 -3.02536,3.509057 -8.87603,10.221155 -13.0015,14.915455 -4.1255,4.694298 -8.46004,9.663247 -9.63228,11.042045 -1.17223,1.378792 -5.8977,6.807532 -10.50116,12.064138 -4.60364,5.256232 -10.88463,12.457182 -13.95781,16.001822 -18.79135,21.67364 -47.44504,54.52723 -47.92625,54.95068 -0.31252,0.27504 -6.38734,7.25088 -13.49937,15.50186 -7.11222,8.25098 -13.39588,15.50874 -13.96375,16.12824 -0.56803,0.61968 -3.28298,3.73111 -6.03331,6.91446 -10.68094,12.3625 -21.07978,24.26999 -27.28197,31.2401 -3.56147,4.00233 -7.41498,8.50288 -8.56332,10.00102 -1.14832,1.49834 -2.79144,3.39927 -3.65135,4.22437 -0.8599,0.8251 -5.80016,6.45065 -10.97836,12.50136 -5.17798,6.05073 -11.69137,13.49324 -14.47401,16.53907 -2.78266,3.04563 -7.05924,7.93865 -9.50336,10.87335 -2.44432,2.93489 -4.92343,5.84359 -5.50926,6.46384 -0.58564,0.62026 -3.98645,4.50323 -7.55728,8.62872 -3.57073,4.1255 -6.7178,7.72597 -6.99342,8.00101 -0.27565,0.27503 -3.42552,3.87551 -6.99974,8.001 -3.57421,4.12549 -6.72409,7.72597 -6.99973,8.001 -0.27562,0.27503 -3.42453,3.87532 -6.99755,8.00081 -3.57301,4.12549 -7.51097,8.62145 -8.75104,9.99107 -1.24006,1.36943 -2.25465,2.75894 -2.25465,3.08752 0,2.64016 -19.49311,18.16497 -28.57962,22.76153 -6.16352,3.11813 -14.44776,6.84771 -20.20756,9.09769 -11.6021,4.53231 -38.5562,8.26381 -47.22428,6.53767 z m -12.58943,-25.35789 c -16.06452,-4.59962 -34.48493,-17.94694 -40.36174,-29.24603 -1.2508,-2.40491 -2.6395,-4.60211 -3.08598,-4.88269 -0.44651,-0.28078 -3.26841,-5.90652 -6.27093,-12.50156 -4.71923,-10.36613 -17.96472,-38.01552 -42.15644,-88.00013 -3.46089,-7.15085 -8.6626,-17.9521 -11.55935,-24.00281 -2.89678,-6.05072 -9.93026,-20.6135 -15.62998,-32.36167 -5.69969,-11.74819 -10.3631,-21.49521 -10.3631,-21.65988 0,-0.29377 -8.38737,-17.75778 -24.24904,-50.49106 C 412.41858,95.17416 406.45254,82.79769 403.55877,76.746972 400.66498,70.696253 394.8181,58.544705 390.5657,49.74366 383.29683,34.699679 380.17443,28.179797 368.17436,2.9881431 c -2.68575,-5.638169 -8.47365,-17.6771031 -12.86198,-26.7531801 -14.67055,-30.342034 -14.52912,-29.891979 -12.0644,-38.388556 1.43689,-4.9534 9.3067,-18.012479 13.95531,-23.157331 l 3.35276,-3.710665 11.00133,0.587534 c 16.47411,0.879798 26.10669,4.06071 28.95055,9.560139 0.81461,1.575317 3.46857,8.881069 5.89768,16.235018 2.42909,7.353949 16.43714,49.825152 31.12897,94.380541 14.69184,44.555292 28.4106,85.960327 30.48611,92.011057 2.0755,6.05071 5.20995,15.50185 6.96546,21.0025 1.75548,5.50067 3.54681,10.90129 3.9807,12.00141 1.43863,3.64753 8.26487,23.92784 9.59409,28.50338 1.30604,4.49558 4.41166,13.76368 11.56191,34.50415 2.08599,6.05073 4.2381,12.57635 4.78247,14.50158 1.19037,4.20983 10.48856,31.47728 13.13004,38.50458 1.03382,2.75051 3.7795,10.17639 6.10151,16.50214 5.90091,16.07545 15.71426,39.82905 18.17996,44.00504 3.31726,5.61848 13.76429,15.24423 20.26334,18.67048 l 6.00071,3.16363 7.70876,1.58441 c 9.76256,2.0067 15.47831,1.99943 23.73111,-0.0287 8.545,-2.10081 16.50542,-6.35194 23.39883,-12.496 l 5.54822,-4.94504 2.7146,-5.72423 c 2.46386,-5.1956 10.06423,-26.20308 17.449,-48.22942 1.56759,-4.67555 5.83362,-17.05183 9.48006,-27.50326 3.64646,-10.45124 11.97349,-34.52903 18.5045,-53.50629 6.53103,-18.97725 14.85546,-43.05505 18.49875,-53.50629 16.07307,-46.10775 23.67477,-68.149001 24.14528,-70.008436 0.27828,-1.100132 0.88132,-2.900466 1.34017,-4.000598 0.45882,-1.10013 1.36023,-3.575425 2.00344,-5.500653 0.64303,-1.925227 4.76602,-13.851663 9.16214,-26.503165 4.39613,-12.651503 9.05811,-26.153159 10.36002,-30.003617 1.30173,-3.850458 5.94514,-17.3519982 10.3187,-30.003501 4.37355,-12.651522 10.51818,-30.428636 13.65447,-39.504714 3.13648,-9.076097 6.31771,-17.194954 7.06937,-18.041933 3.15561,-3.555706 19.8123,-6.889453 34.69332,-6.943733 l 4.75264,-0.01721 4.63864,6.250759 c 5.7709,7.776634 10.47285,17.582544 11.10038,23.150617 l 0.47758,4.237454 -6.79492,14.434319 c -3.73741,7.938861 -12.11253,25.134409 -18.61175,38.2122123 -6.49923,13.0780137 -11.81665,23.9561487 -11.81665,24.1739957 0,0.370279 -13.99817,29.275296 -31.99234,66.061775 -7.40905,15.146693 -13.46628,27.670433 -29.02321,60.007233 -3.70473,7.70092 -12.02321,24.80286 -18.48515,38.00442 -6.462,13.20158 -13.4473,27.60331 -15.52286,32.00382 -2.07553,4.40054 -9.497,19.70233 -16.49214,34.00403 -11.40243,23.31275 -23.0635,47.57434 -25.4767,53.00634 -9.54937,21.4948 -13.77446,28.49725 -21.95078,36.37947 -13.38001,12.89899 -29.59311,19.23144 -48.78944,19.05586 l -7.79308,-0.0708 -6.08865,-1.74334 z m 9.08307,-23.30968 c -1.64693,-0.44909 -5.1212,-2.38618 -7.72058,-4.30452 l -4.72617,-3.48801 -1.96413,-3.85009 c -1.80505,-3.53812 -3.53435,-11.56896 -7.68103,-35.67047 -0.85175,-4.95059 -2.19656,-12.37647 -2.98849,-16.50196 -0.79192,-4.12549 -5.26722,-28.20347 -9.94511,-53.50648 -4.6779,-25.303 -9.36613,-50.28086 -10.41833,-55.50649 -1.05218,-5.22562 -3.55192,-18.05212 -5.55495,-28.50336 -5.82533,-30.39475 -8.45378,-43.72293 -9.46724,-48.005831 -0.52067,-2.200263 -1.90751,-9.176107 -3.08186,-15.501858 -1.1744,-6.325752 -3.46553,-18.027264 -5.09144,-26.003211 -1.62589,-7.975947 -3.36228,-16.751938 -3.85859,-19.502265 -0.49635,-2.750326 -2.28825,-11.751431 -3.98201,-20.00241 -1.69377,-8.2509805 -3.54265,-17.4770834 -4.10864,-20.502443 -0.56598,-3.0253594 -2.56378,-12.926554 -4.4395,-22.002633 -3.27976,-15.86969 -4.93229,-25.756313 -9.49901,-56.829973 l -2.10527,-14.3249 0.69349,-3.177186 c 1.48421,-6.79971 9.77058,-15.82128 21.67852,-23.60193 l 5.84101,-3.81651 9.0819,3.91543 c 4.99505,2.15348 11.67951,5.6794 14.85432,7.83538 l 5.77239,3.91996 2.00956,4.28524 2.00957,4.28525 1.6261,24.502908 c 0.89436,13.47662 2.27923,32.603899 3.07747,42.505075 1.61011,19.97137 2.63053,34.1988592 5.52316,77.009148 1.07785,15.951896 2.3878,34.179026 2.91099,40.504777 0.52318,6.325942 1.457,18.702416 2.07514,27.503452 3.77044,53.68379 5.32253,76.58264 8.43961,124.51484 4.01571,61.75133 6.279,89.97354 7.63513,95.20758 l 0.95784,3.69688 2.61107,2.05394 2.61107,2.05376 4.93146,0 c 6.00954,0 8.0371,-1.00335 10.58495,-5.23786 l 1.96325,-3.2631 0.65147,-9.50125 c 0.83327,-12.15251 2.09494,-27.9665 3.98955,-50.00583 0.8275,-9.62614 1.97761,-25.82801 2.55577,-36.00423 0.57817,-10.1762 1.28215,-21.65261 1.56442,-25.50306 0.28225,-3.85046 0.94225,-15.55178 1.4666,-26.00302 0.52436,-10.45125 1.6323,-30.02867 2.46207,-43.50527 0.82977,-13.47661 2.20894,-37.554395 3.06487,-53.506483 0.8559,-15.951895 2.2149,-39.579649 3.01997,-52.506186 0.80508,-12.926534 1.93178,-31.8288339 2.50379,-42.005042 1.22741,-21.837021 2.45033,-42.898403 4.1138,-70.849048 l 1.2107,-20.343021 2.79234,-4.21567 c 3.68217,-5.55907 9.51189,-9.61936 23.13542,-16.11337 l 11.22953,-5.35284 2.64111,1.68021 c 9.73087,6.19052 19.84901,15.86426 22.8244,21.82189 l 2.3494,4.70422 -0.068,4.079016 c -0.0375,2.243448 -0.76664,7.679437 -1.62039,12.079959 -2.67797,13.802987 -7.28849,38.510904 -15.58311,83.5099603 -4.41057,23.9278617 -8.74001,47.3306947 -9.62097,52.0062487 -0.88094,4.675556 -2.27843,12.101438 -3.10549,16.501961 -0.82706,4.400522 -2.12091,11.151255 -2.87525,15.001712 -0.75433,3.850457 -2.30478,12.176416 -3.44548,18.502354 -1.1407,6.325759 -2.48649,13.526519 -2.99066,16.001819 -0.50417,2.47529 -1.59506,8.32614 -2.42421,13.00169 -0.82918,4.67556 -2.88772,15.92684 -4.57454,25.00293 -1.68679,9.07607 -3.9808,21.45254 -5.09776,27.50326 -1.11697,6.05073 -2.43215,13.02657 -2.92263,15.50187 -1.05331,5.3157 -3.27353,17.15032 -5.44116,29.0035 -2.79609,15.28975 -7.51436,40.34775 -9.03917,48.00563 -2.78775,14.00105 -4.39428,22.48097 -5.96831,31.50368 -2.81357,16.12805 -3.75515,19.89396 -6.33801,25.3491 l -2.54542,5.37595 -4.92734,3.89483 c -2.71006,2.14231 -5.89666,4.09432 -7.08136,4.33779 -4.58355,0.94254 -13.30407,1.13379 -16.16161,0.35461 z"
       style="fill:#d7b131;fill-opacity:1"
       sodipodi:nodetypes="cccsssscscscccssccsccsssccccsssscccsscccssssssssssssscccccccssccsssscccscccsssssssscsssccccccsssssssssscccssssscsscsscssscssccsssssscssscsscssssssccssccssccsccsccssscscscscsccssscsssscccccssssscsssssscsscscscccscsssssscscscsssssccssscsscsscsscssssssssscccccssssccccccccccccccscscsscscccscssscscccsscsssccccsscscscssccccscscccscsscccccscccccsssssssssscccscccccccccssssssccssscccccsccccssscccccccccsscsssscsccscscccsccsssccscscscscccsccccccscccsscsscccsscsscssssccccsccccscsscsccccccsccscsccsccsccsccsscsccsccscccscsccccscccsccssssscccsccsscssscsscscsccccscccssscsscssscccccccccsssssssssccccccssscscscccccssccccccssssccssssccsccccccccsssscsccsssscscccssscsscsscsccssssscsscccccccccccccscccscccccccccscccssscscccccscscssscscscscsscsssssssccscssccccsscsssssssccssscccssccccscsscscccsscsccscccscscscscccsccssssssssssscsssssssssscscccccscssssscscscscsccssccssscsssssccccccccssssssssssssscsscsscccssssssscccsccsssssssssscsscssccsssssssssssssssccccc"
       inkscape:export-filename="/home/r00t/Desktop/aa.png"
       inkscape:export-xdpi="90"
       inkscape:export-ydpi="90" />
    <path
       inkscape:connector-curvature="0"
       id="path4312"
       d="m 574.27498,505.30631 -2.57781,-2.38923 -1.17875,-4.36159 -1.17873,-4.36171 0.57182,-5.0007 c 0.31451,-2.75032 0.87273,-6.80065 1.24048,-9.00091 l 0.66866,-4.0006 -1.05816,1.0001 c -0.58197,0.55007 -2.59765,6.26321 -4.47925,12.69587 -4.69386,16.04667 -6.57368,18.56443 -11.78051,15.77777 -4.30803,-2.30547 -6.68084,-12.32723 -5.44327,-22.99001 0.99008,-8.53079 2.45306,-7.42473 1.78921,1.3526 l -0.55484,7.33617 1.21213,3.67278 c 0.66665,2.0201 2.11362,4.15523 3.21544,4.74489 l 2.00335,1.0722 1.93559,-1.75175 1.93563,-1.75166 4.48705,-14.17948 4.48709,-14.17948 1.82386,-1.65059 c 1.00312,-0.9079 2.351,-1.65057 2.99526,-1.65057 l 1.1714,0 7.8e-4,2.75032 c 4.2e-4,1.51269 -0.73034,6.43344 -1.6239,10.93514 l -1.62469,8.1848 0.69007,3.67832 c 0.37954,2.02297 1.81895,4.80715 3.19869,6.18689 l 2.50863,2.50848 5.0189,-0.48216 5.01891,-0.48217 3.04531,-3.04534 3.04533,-3.04526 0.47763,-4.97086 0.47762,-4.97066 -1.61562,-7.97347 c -2.18531,-10.78499 -2.01112,-16.27492 0.51636,-16.27492 1.38379,0 2.61804,3.93747 4.94435,15.77344 2.3473,11.94269 4.55365,17.77021 7.82998,20.681 l 2.19519,1.95009 3.35722,0 c 1.84648,0 4.05303,-0.57742 4.90348,-1.28316 l 1.54627,-1.28335 -2.10186,-5.16749 c -2.55582,-6.28348 -7.72009,-24.38323 -7.76911,-27.229 -0.0195,-1.13245 0.59089,-2.91576 1.35647,-3.96273 l 1.39193,-1.90361 1.68153,1.39563 c 3.73643,3.1009 6.874,12.59354 3.46643,10.48758 -1.43006,-0.88382 -1.14804,0.7526 1.66345,9.65253 4.17059,13.20234 3.86508,20.88967 -1.02449,25.77915 l -2.57008,2.56998 -3.95854,0 -3.95853,0 -3.16007,-2.97755 c -1.73804,-1.63777 -3.9583,-4.77779 -4.9339,-6.97805 l -1.77381,-4.0004 -0.70246,2.0002 c -2.22667,6.34019 -3.07645,7.78631 -6.17365,10.50565 l -3.41199,2.99591 -5.31981,0 -5.31982,0 -2.57785,-2.38903 z m 6.97608,-23.36411 c -0.71843,-19.56347 -3.33648,-50.14908 -4.74416,-55.42386 l -0.9788,-3.66762 1.17691,-2.58296 c 0.6473,-1.42069 1.50344,-2.58318 1.90255,-2.58318 0.73543,0 2.46213,3.34248 5.35879,10.37341 1.9817,4.81001 1.99909,5.72059 0.0952,4.99017 l -1.50017,-0.57569 0,2.09067 c 0,1.15005 0.68624,9.58101 1.52498,18.7355 0.83873,9.15449 1.61795,21.65088 1.73157,27.76969 l 0.20662,11.12525 -1.35286,3.25028 c -0.74408,1.78771 -1.67971,3.25048 -2.0792,3.25048 -0.39947,0 -1.00315,-7.53835 -1.34152,-16.75214 z m 5.95139,-35.00413 c -0.27192,-0.96261 -0.79186,-3.66282 -1.15544,-6.0006 l -0.66101,-4.25058 1.08802,0 1.08803,0 0,3.37805 c 0,1.85771 0.57766,3.85735 1.2837,4.44318 l 1.28369,1.0655 1.36187,-0.84173 1.36187,-0.84174 -0.55013,-4.10139 c -0.71128,-5.30308 0.87206,-6.35597 1.74935,-1.16344 0.6537,3.8694 2.93482,6.97202 4.19754,5.70914 0.3511,-0.35097 0.11513,-1.78657 -0.52423,-3.18985 -0.63942,-1.40347 -1.16258,-3.52054 -1.16258,-4.70483 l 0,-2.15321 0.90718,0.95019 c 1.43604,1.50389 2.971,8.20259 2.38929,10.42695 l -0.5294,2.02449 -2.38365,0 c -1.311,0 -2.38365,-0.51984 -2.38365,-1.15521 l 0,-1.15502 -1.82897,1.65516 c -2.38005,2.15398 -4.90846,2.11056 -5.53148,-0.0956 z"
       style="fill:#1177e3"
       inkscape:export-filename="/home/r00t/Desktop/aa.png"
       inkscape:export-xdpi="90"
       inkscape:export-ydpi="90" />
  </g>
</svg>
